<svg xmlns="http://www.w3.org/2000/svg" viewBox="0 0 560 600" width="560" height="600">
	<style>
		tspan { white-space:pre }
		.shp0 { fill: #ffffff } 
	</style>
	<path id="Background" class="shp0" d="M0 0L560 0L560 600L0 600L0 0Z" />
	<path id=".Net Core Developer " fill="#3180e7" d="M83.33 352.87Q83.33 351.81 83.95 351.11Q84.59 350.41 85.84 350.41Q87.09 350.41 87.73 351.11Q88.39 351.81 88.39 352.87Q88.39 353.88 87.73 354.56Q87.09 355.24 85.84 355.24Q84.59 355.24 83.95 354.56Q83.33 353.88 83.33 352.87ZM120.31 323.01L120.31 355L116.07 355L99.97 330.35L99.97 355L95.73 355L95.73 323.01L99.97 323.01L116.12 347.77L116.12 323.01L120.31 323.01ZM137.03 355.44Q132.2 355.44 129.17 352.28Q126.14 349.09 126.14 343.77L126.14 343.02Q126.14 339.49 127.48 336.72Q128.84 333.93 131.26 332.37Q133.69 330.79 136.53 330.79Q141.17 330.79 143.74 333.84Q146.31 336.89 146.31 342.59L146.31 344.28L130.2 344.28Q130.29 347.79 132.24 349.97Q134.22 352.12 137.25 352.12Q139.41 352.12 140.9 351.24Q142.4 350.36 143.52 348.91L146 350.85Q143.01 355.44 137.03 355.44ZM136.53 334.13Q134.07 334.13 132.4 335.93Q130.73 337.71 130.33 340.94L142.24 340.94L142.24 340.63Q142.07 337.53 140.57 335.84Q139.08 334.13 136.53 334.13ZM152.46 325.47L156.52 325.47L156.52 331.23L160.96 331.23L160.96 334.37L156.52 334.37L156.52 349.11Q156.52 350.54 157.12 351.26Q157.71 351.97 159.14 351.97Q159.84 351.97 161.07 351.7L161.07 355Q159.47 355.44 157.95 355.44Q155.23 355.44 153.84 353.79Q152.46 352.14 152.46 349.11L152.46 334.37L148.13 334.37L148.13 331.23L152.46 331.23L152.46 325.47ZM196.78 344.85L201.02 344.85Q200.43 349.92 197.26 352.69Q194.12 355.44 188.89 355.44Q183.22 355.44 179.79 351.37Q176.39 347.31 176.39 340.5L176.39 337.42Q176.39 332.96 177.97 329.58Q179.57 326.19 182.5 324.39Q185.42 322.57 189.26 322.57Q194.36 322.57 197.44 325.42Q200.51 328.26 201.02 333.29L196.78 333.29Q196.23 329.47 194.38 327.75Q192.56 326.04 189.26 326.04Q185.22 326.04 182.91 329.03Q180.63 332.02 180.63 337.53L180.63 340.63Q180.63 345.84 182.8 348.91Q184.98 351.99 188.89 351.99Q192.41 351.99 194.27 350.41Q196.16 348.8 196.78 344.85ZM205.06 343.18L205.06 342.89Q205.06 339.4 206.42 336.61Q207.81 333.82 210.25 332.3Q212.71 330.79 215.85 330.79Q220.71 330.79 223.69 334.15Q226.71 337.51 226.71 343.09L226.71 343.38Q226.71 346.85 225.36 349.62Q224.05 352.36 221.56 353.9Q219.1 355.44 215.89 355.44Q211.06 355.44 208.05 352.08Q205.06 348.72 205.06 343.18ZM209.15 343.38Q209.15 347.33 210.97 349.73Q212.82 352.12 215.89 352.12Q218.99 352.12 220.82 349.7Q222.64 347.27 222.64 342.89Q222.64 338.98 220.77 336.56Q218.93 334.13 215.85 334.13Q212.84 334.13 210.99 336.52Q209.15 338.92 209.15 343.38ZM243.29 331.09L243.29 334.87Q242.37 334.72 241.29 334.72Q237.3 334.72 235.87 338.13L235.87 355L231.8 355L231.8 331.23L235.76 331.23L235.82 333.97Q237.82 330.79 241.49 330.79Q242.68 330.79 243.29 331.09ZM256.48 355.44Q251.64 355.44 248.61 352.28Q245.58 349.09 245.58 343.77L245.58 343.02Q245.58 339.49 246.92 336.72Q248.28 333.93 250.7 332.37Q253.14 330.79 255.97 330.79Q260.61 330.79 263.18 333.84Q265.75 336.89 265.75 342.59L265.75 344.28L249.64 344.28Q249.73 347.79 251.69 349.97Q253.67 352.12 256.7 352.12Q258.85 352.12 260.35 351.24Q261.84 350.36 262.96 348.91L265.44 350.85Q262.45 355.44 256.48 355.44ZM255.97 334.13Q253.51 334.13 251.84 335.93Q250.17 337.71 249.78 340.94L261.69 340.94L261.69 340.63Q261.51 337.53 260.02 335.84Q258.52 334.13 255.97 334.13ZM291.08 355L282.23 355L282.23 323.01L291.26 323.01Q295.44 323.01 298.64 324.85Q301.85 326.7 303.59 330.1Q305.35 333.51 305.37 337.93L305.37 339.97Q305.37 344.5 303.61 347.9Q301.87 351.31 298.62 353.13Q295.39 354.96 291.08 355ZM291.37 326.48L286.45 326.48L286.45 351.55L290.89 351.55Q295.77 351.55 298.47 348.52Q301.19 345.49 301.19 339.88L301.19 338.02Q301.19 332.57 298.62 329.56Q296.07 326.52 291.37 326.48ZM320.97 355.44Q316.13 355.44 313.1 352.28Q310.07 349.09 310.07 343.77L310.07 343.02Q310.07 339.49 311.41 336.72Q312.77 333.93 315.19 332.37Q317.63 330.79 320.46 330.79Q325.1 330.79 327.67 333.84Q330.24 336.89 330.24 342.59L330.24 344.28L314.13 344.28Q314.22 347.79 316.18 349.97Q318.16 352.12 321.19 352.12Q323.34 352.12 324.83 351.24Q326.33 350.36 327.45 348.91L329.93 350.85Q326.94 355.44 320.97 355.44ZM320.46 334.13Q318 334.13 316.33 335.93Q314.66 337.71 314.27 340.94L326.18 340.94L326.18 340.63Q326 337.53 324.51 335.84Q323.01 334.13 320.46 334.13ZM336.46 331.23L342.5 349.48L348.39 331.23L352.54 331.23L344.02 355L340.92 355L332.31 331.23L336.46 331.23ZM366.03 355.44Q361.2 355.44 358.17 352.28Q355.14 349.09 355.14 343.77L355.14 343.02Q355.14 339.49 356.48 336.72Q357.84 333.93 360.25 332.37Q362.69 330.79 365.53 330.79Q370.16 330.79 372.74 333.84Q375.31 336.89 375.31 342.59L375.31 344.28L359.2 344.28Q359.29 347.79 361.24 349.97Q363.22 352.12 366.25 352.12Q368.41 352.12 369.9 351.24Q371.4 350.36 372.52 348.91L375 350.85Q372.01 355.44 366.03 355.44ZM365.53 334.13Q363.07 334.13 361.4 335.93Q359.73 337.71 359.33 340.94L371.24 340.94L371.24 340.63Q371.07 337.53 369.57 335.84Q368.08 334.13 365.53 334.13ZM384.42 321.25L384.42 355L380.36 355L380.36 321.25L384.42 321.25ZM389.85 343.18L389.85 342.89Q389.85 339.4 391.21 336.61Q392.6 333.82 395.04 332.3Q397.5 330.79 400.64 330.79Q405.5 330.79 408.48 334.15Q411.5 337.51 411.5 343.09L411.5 343.38Q411.5 346.85 410.15 349.62Q408.84 352.36 406.35 353.9Q403.89 355.44 400.68 355.44Q395.85 355.44 392.84 352.08Q389.85 348.72 389.85 343.18ZM393.94 343.38Q393.94 347.33 395.76 349.73Q397.61 352.12 400.68 352.12Q403.78 352.12 405.61 349.7Q407.43 347.27 407.43 342.89Q407.43 338.98 405.56 336.56Q403.72 334.13 400.64 334.13Q397.63 334.13 395.78 336.52Q393.94 338.92 393.94 343.38ZM436.68 343L436.68 343.38Q436.68 348.8 434.19 352.12Q431.71 355.44 427.47 355.44Q423.14 355.44 420.66 352.69L420.66 364.14L416.59 364.14L416.59 331.23L420.31 331.23L420.5 333.86Q422.99 330.79 427.4 330.79Q431.69 330.79 434.17 334.02Q436.68 337.25 436.68 343ZM432.61 342.92Q432.61 338.89 430.9 336.56Q429.18 334.24 426.19 334.24Q422.5 334.24 420.66 337.51L420.66 348.87Q422.48 352.12 426.24 352.12Q429.16 352.12 430.88 349.81Q432.61 347.49 432.61 342.92ZM451.71 355.44Q446.87 355.44 443.84 352.28Q440.81 349.09 440.81 343.77L440.81 343.02Q440.81 339.49 442.15 336.72Q443.51 333.93 445.93 332.37Q448.37 330.79 451.2 330.79Q455.84 330.79 458.41 333.84Q460.98 336.89 460.98 342.59L460.98 344.28L444.87 344.28Q444.96 347.79 446.92 349.97Q448.89 352.12 451.92 352.12Q454.08 352.12 455.57 351.24Q457.07 350.36 458.19 348.91L460.67 350.85Q457.68 355.44 451.71 355.44ZM451.2 334.13Q448.74 334.13 447.07 335.93Q445.4 337.71 445 340.94L456.91 340.94L456.91 340.63Q456.74 337.53 455.24 335.84Q453.75 334.13 451.2 334.13ZM477.17 331.09L477.17 334.87Q476.25 334.72 475.17 334.72Q471.17 334.72 469.74 338.13L469.74 355L465.68 355L465.68 331.23L469.63 331.23L469.7 333.97Q471.7 330.79 475.37 330.79Q476.56 330.79 477.17 331.09Z" />
	<path id="Diego Galante " fill="#3180e7" d="M67.18 282L49.05 282L49.05 233.07L67.18 233.07Q72.57 233.07 76.91 234.96Q81.25 236.78 84.26 240.07Q87.34 243.36 88.95 247.84Q90.63 252.32 90.63 257.57Q90.63 262.82 88.95 267.3Q87.34 271.78 84.26 275.07Q81.25 278.29 76.91 280.18Q72.57 282 67.18 282ZM58.99 240.84L58.99 274.23L66.41 274.23Q69.7 274.23 72.29 272.9Q74.88 271.57 76.63 269.33Q78.45 267.09 79.36 264.08Q80.27 261 80.27 257.57Q80.27 254.14 79.36 251.06Q78.45 247.98 76.63 245.74Q74.88 243.5 72.29 242.17Q69.7 240.84 66.41 240.84L58.99 240.84ZM108.83 282L99.38 282L99.38 245.95L108.83 245.95L108.83 282ZM109.32 234.61Q109.32 236.85 107.78 238.39Q106.24 239.93 104.07 239.93Q101.83 239.93 100.29 238.39Q98.75 236.85 98.75 234.61Q98.75 232.44 100.29 230.97Q101.83 229.43 104.07 229.43Q106.24 229.43 107.78 230.97Q109.32 232.44 109.32 234.61ZM136.41 282.77Q130.6 282.77 126.82 281.23Q123.04 279.69 120.73 277.1Q118.49 274.51 117.58 271.15Q116.67 267.72 116.67 263.94Q116.67 260.58 117.58 257.22Q118.49 253.86 120.45 251.2Q122.48 248.47 125.7 246.79Q128.92 245.11 133.54 245.11Q138.44 245.11 141.66 246.79Q144.95 248.47 146.91 251.2Q148.87 253.86 149.64 257.22Q150.48 260.58 150.48 263.94L150.48 267.09L125.7 267.09Q125.7 270.87 128.36 273.32Q131.09 275.77 135.78 275.77Q138.44 275.77 140.68 275.21Q142.92 274.65 144.53 273.95Q146.35 273.18 147.89 272.13L147.89 279.97Q147.89 280.04 146.98 280.46Q146.07 280.88 144.53 281.44Q142.99 281.93 140.89 282.35Q138.79 282.77 136.41 282.77ZM125.7 260.44L141.59 260.44Q141.59 259.25 141.24 257.85Q140.96 256.38 140.05 255.12Q139.21 253.86 137.6 253.02Q136.06 252.18 133.54 252.18Q131.37 252.18 129.83 253.02Q128.36 253.86 127.45 255.12Q126.54 256.38 126.12 257.85Q125.7 259.25 125.7 260.44ZM183.59 245.95L190.94 245.95L190.94 280.39Q190.94 283.82 189.82 286.9Q188.77 289.91 186.39 292.29Q184.08 294.6 180.44 296.07Q176.8 297.47 171.69 297.54Q168.96 297.54 166.72 297.19Q164.48 296.77 162.87 296.28Q160.98 295.72 159.44 294.95L160.14 287.46Q161.68 288.23 163.5 288.86Q165.11 289.42 167.14 289.84Q169.24 290.19 171.69 290.19Q175.75 290.19 177.78 288.44Q179.88 286.62 180.72 284.24Q181.56 281.86 181.56 279.62Q181.56 277.31 181.56 276.26Q181.56 276.26 181 277.17Q180.44 278.01 179.18 279.13Q177.92 280.18 175.89 281.09Q173.86 282 170.92 282Q167.77 282 164.97 281.09Q162.17 280.11 160.07 277.94Q157.97 275.7 156.71 272.13Q155.52 268.56 155.52 263.38Q155.52 258.2 157.06 254.7Q158.6 251.2 160.91 249.1Q163.22 246.93 165.88 246.02Q168.61 245.11 170.92 245.11Q173.65 245.11 175.68 245.95Q177.71 246.72 178.97 247.7Q180.3 248.68 180.93 249.52Q181.63 250.29 181.63 250.29L183.59 245.95ZM181.56 263.59Q181.56 257.92 179.32 255.19Q177.08 252.39 173.44 252.39Q169.8 252.39 167.56 255.19Q165.32 257.92 165.32 263.59Q165.32 269.26 167.56 271.99Q169.8 274.72 173.44 274.72Q177.08 274.72 179.32 271.99Q181.56 269.26 181.56 263.59ZM217.12 245.11Q219.92 245.11 223.21 245.95Q226.5 246.79 229.37 248.89Q232.24 250.99 234.13 254.63Q236.09 258.27 236.09 263.94Q236.09 269.61 234.13 273.25Q232.24 276.89 229.37 278.99Q226.5 281.09 223.21 281.93Q219.92 282.77 217.12 282.77Q214.32 282.77 211.03 281.93Q207.74 281.09 204.87 278.99Q202.07 276.89 200.18 273.25Q198.29 269.61 198.29 263.94Q198.29 258.27 200.18 254.63Q202.07 250.99 204.87 248.89Q207.74 246.79 211.03 245.95Q214.32 245.11 217.12 245.11ZM217.12 275.77Q221.04 275.77 223.63 272.69Q226.29 269.61 226.29 263.94Q226.29 258.27 223.63 255.26Q221.04 252.18 217.12 252.18Q213.34 252.18 210.75 255.26Q208.16 258.27 208.16 263.94Q208.16 266.74 208.86 268.98Q209.56 271.15 210.75 272.69Q211.94 274.16 213.55 275Q215.23 275.77 217.12 275.77ZM284.11 261.91L284.11 254L303.85 254L303.85 278.43Q302.03 279.41 299.58 280.18Q297.13 280.95 294.47 281.58Q291.81 282.14 289.22 282.49Q286.63 282.77 284.67 282.77Q282.29 282.77 279.63 282.35Q276.97 281.86 274.38 280.81Q271.79 279.69 269.41 277.87Q267.1 275.98 265.28 273.18Q263.46 270.38 262.41 266.53Q261.36 262.61 261.36 257.5Q261.36 249.73 263.6 244.83Q265.84 239.86 269.55 237.13Q273.26 234.33 277.95 233.35Q282.71 232.3 287.75 232.3Q290.13 232.3 292.65 232.65Q295.24 233 297.34 233.42Q299.51 233.84 300.84 234.19Q302.24 234.54 302.24 234.54L302.24 242.87Q302.24 242.87 300.91 242.45Q299.65 242.03 297.55 241.61Q295.52 241.12 292.93 240.7Q290.34 240.28 287.75 240.28Q284.11 240.28 281.1 241.12Q278.16 241.96 275.99 243.99Q273.89 245.95 272.7 249.31Q271.58 252.6 271.58 257.5Q271.58 261.91 272.56 265.13Q273.61 268.28 275.36 270.38Q277.11 272.41 279.49 273.39Q281.94 274.37 284.67 274.37Q287.54 274.37 289.43 274.16Q291.32 273.88 292.51 273.53Q293.84 273.18 294.68 272.62L294.68 261.91L284.11 261.91ZM327.09 245.11Q329.4 245.11 332.06 245.88Q334.72 246.58 337.03 248.26Q339.34 249.87 340.81 252.46Q342.28 255.05 342.21 258.76L342.21 282L335.35 282Q335.35 282 335.14 281.16Q334.93 280.32 334.65 279.27Q334.44 278.22 334.23 277.45Q334.02 276.61 334.02 276.68Q333.04 278.43 331.43 279.76Q330.03 280.95 327.79 281.86Q325.62 282.77 322.4 282.77Q320.16 282.77 317.99 282.14Q315.82 281.44 314.07 280.18Q312.39 278.85 311.27 276.89Q310.22 274.93 310.15 272.34Q310.01 269.61 310.85 267.51Q311.76 265.34 313.37 263.8Q315.05 262.26 317.36 261.35Q319.67 260.37 322.4 260.02Q324.99 259.67 328.07 259.67Q331.15 259.67 333.6 259.81L333.6 258.69Q333.6 255.68 332.27 254.21Q330.94 252.67 328.91 252.25Q326.95 251.76 324.57 252.11Q322.19 252.46 320.02 253.16Q317.85 253.79 316.17 254.56Q314.56 255.26 314.14 255.61L314.14 248.54Q314.21 248.47 315.4 247.98Q316.59 247.42 318.41 246.79Q320.23 246.16 322.47 245.67Q324.78 245.11 327.09 245.11ZM331.57 272.9Q332.76 271.36 333.11 269.47Q333.53 267.58 333.53 265.48L329.47 265.48Q327.86 265.48 326.04 265.69Q324.22 265.9 322.68 266.53Q321.14 267.16 320.09 268.42Q319.04 269.61 319.04 271.71Q319.04 274.02 320.72 275.07Q322.47 276.12 324.99 276.12Q327.16 276.12 328.77 275.28Q330.45 274.37 331.57 272.9ZM360.62 271.92L360.62 271.92Q360.69 273.11 361.25 273.81Q361.81 274.51 362.58 274.86Q363.42 275.14 364.4 275.21Q365.45 275.21 366.57 275.07L366.57 282.28Q365.59 282.49 364.82 282.63Q364.12 282.7 363.56 282.77Q362.93 282.84 362.51 282.77Q359.85 282.77 357.75 282.56Q355.65 282.35 354.18 281.23Q352.71 280.04 351.94 277.73Q351.17 275.35 351.17 271.01L351.17 229.5L360.62 229.5L360.62 271.92ZM386.1 245.11Q388.41 245.11 391.07 245.88Q393.73 246.58 396.04 248.26Q398.35 249.87 399.82 252.46Q401.29 255.05 401.22 258.76L401.22 282L394.36 282Q394.36 282 394.15 281.16Q393.94 280.32 393.66 279.27Q393.45 278.22 393.24 277.45Q393.03 276.61 393.03 276.68Q392.05 278.43 390.44 279.76Q389.04 280.95 386.8 281.86Q384.63 282.77 381.41 282.77Q379.17 282.77 377 282.14Q374.83 281.44 373.08 280.18Q371.4 278.85 370.28 276.89Q369.23 274.93 369.16 272.34Q369.02 269.61 369.86 267.51Q370.77 265.34 372.38 263.8Q374.06 262.26 376.37 261.35Q378.68 260.37 381.41 260.02Q384 259.67 387.08 259.67Q390.16 259.67 392.61 259.81L392.61 258.69Q392.61 255.68 391.28 254.21Q389.95 252.67 387.92 252.25Q385.96 251.76 383.58 252.11Q381.2 252.46 379.03 253.16Q376.86 253.79 375.18 254.56Q373.57 255.26 373.15 255.61L373.15 248.54Q373.22 248.47 374.41 247.98Q375.6 247.42 377.42 246.79Q379.24 246.16 381.48 245.67Q383.79 245.11 386.1 245.11ZM390.58 272.9Q391.77 271.36 392.12 269.47Q392.54 267.58 392.54 265.48L388.48 265.48Q386.87 265.48 385.05 265.69Q383.23 265.9 381.69 266.53Q380.15 267.16 379.1 268.42Q378.05 269.61 378.05 271.71Q378.05 274.02 379.73 275.07Q381.48 276.12 384 276.12Q386.17 276.12 387.78 275.28Q389.46 274.37 390.58 272.9ZM431.32 245.11Q434.54 245.11 436.85 246.23Q439.16 247.28 440.63 249.17Q442.17 251.06 442.87 253.65Q443.57 256.24 443.57 259.25L443.57 282L434.19 282L434.19 262.4Q434.19 257.22 432.79 254.77Q431.39 252.32 427.96 252.32Q423.83 252.32 421.8 255.75Q419.84 259.18 419.84 264.78L419.84 282L410.46 282L410.46 245.95L417.46 245.95L419.35 250.85Q420.05 250.08 420.89 249.1Q421.73 248.05 422.99 247.21Q424.32 246.3 426.28 245.74Q428.31 245.11 431.32 245.11ZM467.16 275.49Q469.19 275.49 470.94 275.14Q471.78 274.93 472.62 274.72L472.69 282Q471.43 282.21 470.03 282.42Q468.84 282.56 467.23 282.7Q465.62 282.77 463.8 282.77Q461.14 282.49 459.11 281.16Q457.36 279.97 455.89 277.66Q454.49 275.28 454.49 271.01L454.49 252.81L447.63 252.81L447.63 245.95L454.49 245.95L454.56 238.04L463.8 235.73L463.8 245.95L472.27 245.95L472.27 252.81L463.94 252.81L463.94 270.52Q463.94 271.43 464.15 272.34Q464.43 273.18 464.85 273.88Q465.34 274.58 465.9 275.07Q466.53 275.49 467.16 275.49ZM498.03 282.77Q492.22 282.77 488.44 281.23Q484.66 279.69 482.35 277.1Q480.11 274.51 479.2 271.15Q478.29 267.72 478.29 263.94Q478.29 260.58 479.2 257.22Q480.11 253.86 482.07 251.2Q484.1 248.47 487.32 246.79Q490.54 245.11 495.16 245.11Q500.06 245.11 503.28 246.79Q506.57 248.47 508.53 251.2Q510.49 253.86 511.26 257.22Q512.1 260.58 512.1 263.94L512.1 267.09L487.32 267.09Q487.32 270.87 489.98 273.32Q492.71 275.77 497.4 275.77Q500.06 275.77 502.3 275.21Q504.54 274.65 506.15 273.95Q507.97 273.18 509.51 272.13L509.51 279.97Q509.51 280.04 508.6 280.46Q507.69 280.88 506.15 281.44Q504.61 281.93 502.51 282.35Q500.41 282.77 498.03 282.77ZM487.32 260.44L503.21 260.44Q503.21 259.25 502.86 257.85Q502.58 256.38 501.67 255.12Q500.83 253.86 499.22 253.02Q497.68 252.18 495.16 252.18Q492.99 252.18 491.45 253.02Q489.98 253.86 489.07 255.12Q488.16 256.38 487.74 257.85Q487.32 259.25 487.32 260.44Z" />
</svg>